<svg width="174" height="175" viewBox="0 0 174 175" fill="none" xmlns="http://www.w3.org/2000/svg">
<g clip-path="url(#clip0_1051_3)">
<path d="M161.328 87.5295C161.328 128.644 128.079 161.927 87.1236 161.927C46.1679 161.927 12.9193 128.644 12.9193 87.5295C12.9193 46.4146 46.1679 13.1319 87.1236 13.1319C128.079 13.1319 161.328 46.4146 161.328 87.5295Z" stroke="#0A2640" stroke-width="24.971"/>
<mask id="mask0_1051_3" style="mask-type:alpha" maskUnits="userSpaceOnUse" x="-52" y="-31" width="137" height="226">
<path d="M84.3571 79.5187L50.542 -30.7797L-51.8257 99.2368L2.58596 194.13L84.3571 79.5187Z" fill="#C4C4C4"/>
</mask>
<g mask="url(#mask0_1051_3)">
<path d="M161.328 87.5293C161.328 128.644 128.08 161.927 87.124 161.927C46.1684 161.927 12.9198 128.644 12.9198 87.5293C12.9198 46.4144 46.1684 13.1318 87.124 13.1318C128.08 13.1318 161.328 46.4144 161.328 87.5293Z" stroke="#0DBBFC" stroke-width="24.971"/>
</g>
<mask id="mask1_1051_3" style="mask-type:alpha" maskUnits="userSpaceOnUse" x="39" y="-40" width="169" height="157">
<path d="M95.8036 89.1839L207.668 116.575L148.553 -38.1029L39.3615 -39.8807L95.8036 89.1839Z" fill="#C4C4C4"/>
</mask>
<g mask="url(#mask1_1051_3)">
<path d="M49.0875 151.371C13.8629 130.33 2.30258 84.6741 23.2714 49.3956C44.2402 14.117 89.7949 2.57932 125.019 23.6208C160.244 44.6624 171.804 90.3179 150.836 125.596C129.867 160.875 84.3122 172.413 49.0875 151.371Z" stroke="#69E6A6" stroke-width="24.971"/>
</g>
</g>
<defs>
<clipPath id="clip0_1051_3">
<rect width="173.469" height="173.469" fill="white" transform="translate(0.268311 0.7901)"/>
</clipPath>
</defs>
</svg>
