<svg width="193" height="166" fill="none" xmlns="http://www.w3.org/2000/svg"><g filter="url(#a)"><rect x=".216" y=".665" width="192.175" height="165.335" rx="15.03" fill="#fff" fill-opacity=".18"/></g><ellipse cx="21.113" cy="18.601" rx="4.72" ry="4.758" fill="#FC5B00"/><ellipse cx="39.993" cy="18.601" rx="4.72" ry="4.758" fill="#ECAA00"/><ellipse cx="58.873" cy="18.601" rx="4.72" ry="4.758" fill="#009D10"/><rect width="9.305" height="23.267" rx="4.652" transform="matrix(1 0 0 -1 24.909 145.528)" fill="#0DBBFC"/><rect width="9.305" height="13.484" rx="4.652" transform="matrix(1 0 0 -1 43.518 135.745)" fill="#0DBBFC"/><rect x="62.127" y="59.864" width="9.305" height="62.397" rx="4.652" fill="#0DBBFC"/><rect x="80.736" y="79.165" width="9.305" height="43.096" rx="4.652" fill="#0DBBFC"/><rect x="99.345" y="39.241" width="9.305" height="83.02" rx="4.652" fill="#95ABBC"/><rect x="117.954" y="63.565" width="9.305" height="58.696" rx="4.652" fill="#0DBBFC"/><rect x="136.563" y="52.197" width="9.305" height="70.065" rx="4.652" fill="#0DBBFC"/><rect x="155.173" y="90.269" width="9.305" height="31.992" rx="4.652" fill="#0DBBFC"/><defs><filter id="a" x="-68.495" y="-68.046" width="329.596" height="302.756" filterUnits="userSpaceOnUse" color-interpolation-filters="sRGB"><feFlood flood-opacity="0" result="BackgroundImageFix"/><feGaussianBlur in="BackgroundImageFix" stdDeviation="34.355"/><feComposite in2="SourceAlpha" operator="in" result="effect1_backgroundBlur_1035_931"/><feBlend in="SourceGraphic" in2="effect1_backgroundBlur_1035_931" result="shape"/></filter></defs></svg>