<svg width="494" height="232" fill="none" xmlns="http://www.w3.org/2000/svg"><g filter="url(#a)"><g clip-path="url(#b)"><rect x=".142" width="493.858" height="231.898" rx="15.03" fill="#fff" fill-opacity=".18"/><rect x="82.922" y="68.18" width="11.777" height="54.174" rx="5.888" transform="rotate(90 82.922 68.18)" fill="#95ABBC"/><rect x="367.207" y="68.109" width="11.92" height="269.981" rx="5.96" transform="rotate(90 367.207 68.11)" fill="#8FB6D5"/><path d="M384.909 70.306c.776 0 1.391.18 1.845.541.454.361.681.86.681 1.496 0 .42-.13.801-.39 1.147-.259.345-.675.66-1.245.943.691.33 1.181.676 1.472 1.041.291.361.437.78.437 1.257 0 .707-.246 1.271-.739 1.694-.493.42-1.168.629-2.026.629-.908 0-1.606-.198-2.095-.594-.489-.4-.733-.964-.733-1.694 0-.974.593-1.732 1.781-2.275-.536-.303-.92-.629-1.153-.978a2.106 2.106 0 0 1-.349-1.182c0-.617.227-1.107.681-1.472.458-.369 1.069-.553 1.833-.553Zm-1.839 6.484c0 .465.161.828.483 1.088.326.26.782.39 1.368.39.578 0 1.028-.136 1.35-.407.322-.272.483-.645.483-1.118 0-.376-.151-.71-.454-1.001-.302-.295-.83-.58-1.583-.856-.578.249-.997.524-1.257.827-.26.299-.39.658-.39 1.077Zm1.828-5.698c-.485 0-.865.116-1.141.349-.275.233-.413.543-.413.931 0 .357.114.664.343.92.229.256.652.512 1.269.768.555-.233.947-.483 1.176-.75.233-.269.349-.58.349-.938 0-.392-.142-.702-.425-.931-.279-.233-.665-.35-1.158-.35Zm9.655 3.58c0 1.47-.232 2.568-.698 3.293-.462.726-1.17 1.089-2.124 1.089-.916 0-1.612-.37-2.09-1.112-.477-.745-.716-1.835-.716-3.27 0-1.483.231-2.583.693-3.3.462-.719 1.166-1.078 2.113-1.078.923 0 1.624.375 2.101 1.124.481.748.721 1.833.721 3.253Zm-4.65 0c0 1.237.146 2.139.437 2.706.291.562.754.843 1.391.843.644 0 1.109-.285 1.397-.855.291-.574.436-1.473.436-2.695 0-1.222-.145-2.117-.436-2.683-.288-.57-.753-.856-1.397-.856-.637 0-1.1.282-1.391.844-.291.56-.437 1.457-.437 2.695Zm6.658-1.706c0 .66.072 1.154.216 1.484.143.33.376.495.698.495.637 0 .955-.66.955-1.98 0-1.31-.318-1.966-.955-1.966-.322 0-.555.163-.698.489-.144.325-.216.818-.216 1.478Zm2.666 0c0 .884-.149 1.554-.448 2.008-.295.45-.73.675-1.304.675-.543 0-.966-.231-1.269-.693-.298-.462-.448-1.125-.448-1.99 0-.881.144-1.544.431-1.99.291-.447.72-.67 1.286-.67.563 0 .995.23 1.298.693.303.461.454 1.117.454 1.967Zm2.456 3.41c0 .664.072 1.16.216 1.49.143.326.378.49.704.49.326 0 .566-.162.721-.484.156-.326.233-.824.233-1.496 0-.663-.077-1.154-.233-1.472-.155-.322-.395-.483-.721-.483-.326 0-.561.16-.704.483-.144.318-.216.809-.216 1.472Zm2.672 0c0 .881-.15 1.548-.449 2.002-.294.45-.729.676-1.303.676-.551 0-.976-.231-1.275-.693-.295-.462-.442-1.123-.442-1.985 0-.88.143-1.544.43-1.99.292-.446.72-.67 1.287-.67.551 0 .979.23 1.286.687.31.454.466 1.112.466 1.973Zm-1.502-5.948-4.72 8.51h-.856l4.72-8.51h.856Z" fill="#fff"/><rect x="82.922" y="107.218" width="11.777" height="54.174" rx="5.888" transform="rotate(90 82.922 107.218)" fill="#95ABBC"/><rect x="177.088" y="107.444" width="11.324" height="79.862" rx="5.662" transform="rotate(90 177.088 107.444)" fill="#0DBBFC"/><path d="M197.247 110.765c0 .543-.154.988-.46 1.333-.303.345-.733.576-1.292.693v.046c.683.086 1.189.303 1.519.652.33.349.495.807.495 1.374 0 .811-.282 1.435-.844 1.874-.563.434-1.362.652-2.398.652-.45 0-.864-.035-1.24-.105a4.15 4.15 0 0 1-1.088-.355v-.92c.368.183.76.322 1.175.419.419.093.815.14 1.188.14 1.47 0 2.206-.576 2.206-1.729 0-1.032-.811-1.548-2.433-1.548h-.838v-.832h.849c.664 0 1.19-.146 1.578-.437.388-.294.582-.702.582-1.222 0-.415-.144-.741-.431-.978-.283-.236-.669-.355-1.158-.355-.373 0-.724.051-1.054.152-.33.101-.706.287-1.129.558l-.489-.651a4.016 4.016 0 0 1 1.205-.646c.458-.16.939-.239 1.443-.239.827 0 1.469.19 1.927.57.458.377.687.895.687 1.554Zm7.188 2.241c0 1.471-.233 2.569-.699 3.294-.462.726-1.17 1.089-2.124 1.089-.916 0-1.612-.371-2.09-1.112-.477-.745-.716-1.835-.716-3.271 0-1.482.231-2.582.693-3.3.462-.718 1.166-1.077 2.113-1.077.923 0 1.624.375 2.101 1.124.481.748.722 1.833.722 3.253Zm-4.651 0c0 1.238.146 2.14.437 2.706.291.563.754.844 1.391.844.644 0 1.11-.285 1.397-.855.291-.574.436-1.473.436-2.695 0-1.222-.145-2.117-.436-2.683-.287-.57-.753-.856-1.397-.856-.637 0-1.1.282-1.391.844-.291.559-.437 1.457-.437 2.695Zm6.659-1.705c0 .659.071 1.154.215 1.484.143.33.376.495.698.495.637 0 .955-.66.955-1.979 0-1.312-.318-1.967-.955-1.967-.322 0-.555.162-.698.488-.144.326-.215.819-.215 1.479Zm2.665 0c0 .884-.149 1.554-.448 2.008-.295.45-.729.675-1.304.675-.543 0-.966-.231-1.269-.693-.298-.462-.448-1.125-.448-1.99 0-.881.144-1.545.431-1.991.291-.446.72-.669 1.286-.669.563 0 .996.231 1.298.693.303.461.454 1.117.454 1.967Zm2.456 3.41c0 .664.072 1.16.216 1.49.143.326.378.489.704.489.326 0 .566-.161.722-.483.155-.326.232-.824.232-1.496 0-.663-.077-1.154-.232-1.472-.156-.322-.396-.483-.722-.483-.326 0-.561.161-.704.483-.144.318-.216.809-.216 1.472Zm2.672 0c0 .881-.15 1.549-.448 2.002-.295.451-.73.676-1.304.676-.551 0-.976-.231-1.275-.693-.295-.462-.442-1.123-.442-1.985 0-.88.143-1.544.431-1.99.291-.446.719-.669 1.286-.669.551 0 .98.228 1.286.686.311.454.466 1.112.466 1.973Zm-1.502-5.948-4.72 8.509h-.856l4.721-8.509h.855Z" fill="#fff"/><rect x="82.922" y="145.957" width="11.777" height="54.174" rx="5.888" transform="rotate(90 82.922 145.957)" fill="#95ABBC"/><rect x="414.885" y="145.885" width="11.92" height="317.66" rx="5.96" transform="rotate(90 414.885 145.885)" fill="#fff"/><path d="M433.351 156.011h-.943v-6.064c0-.505.015-.982.046-1.432a5.943 5.943 0 0 1-.273.256c-.101.089-.563.468-1.385 1.135l-.513-.664 2.253-1.74h.815v8.509Zm8.881-4.266c0 1.471-.233 2.569-.698 3.294-.462.726-1.17 1.089-2.125 1.089-.915 0-1.612-.371-2.089-1.112-.477-.745-.716-1.835-.716-3.271 0-1.482.231-2.582.693-3.3.461-.718 1.166-1.077 2.112-1.077.924 0 1.624.375 2.101 1.124.482.748.722 1.833.722 3.253Zm-4.65 0c0 1.238.145 2.14.436 2.706.291.563.755.844 1.391.844.645 0 1.11-.285 1.397-.855.291-.574.437-1.473.437-2.695 0-1.222-.146-2.117-.437-2.683-.287-.57-.752-.856-1.397-.856-.636 0-1.1.282-1.391.844-.291.559-.436 1.457-.436 2.695Zm11.471 0c0 1.471-.232 2.569-.698 3.294-.462.726-1.17 1.089-2.124 1.089-.916 0-1.613-.371-2.09-1.112-.477-.745-.716-1.835-.716-3.271 0-1.482.231-2.582.693-3.3.462-.718 1.166-1.077 2.113-1.077.923 0 1.623.375 2.101 1.124.481.748.721 1.833.721 3.253Zm-4.65 0c0 1.238.146 2.14.437 2.706.291.563.754.844 1.391.844.644 0 1.109-.285 1.396-.855.291-.574.437-1.473.437-2.695 0-1.222-.146-2.117-.437-2.683-.287-.57-.752-.856-1.396-.856-.637 0-1.1.282-1.391.844-.291.559-.437 1.457-.437 2.695Zm6.658-1.705c0 .659.072 1.154.216 1.484.143.33.376.495.698.495.636 0 .955-.66.955-1.979 0-1.312-.319-1.967-.955-1.967-.322 0-.555.163-.698.488-.144.326-.216.819-.216 1.479Zm2.666 0c0 .884-.149 1.554-.448 2.008-.295.45-.73.675-1.304.675-.543 0-.966-.231-1.269-.693-.298-.461-.448-1.125-.448-1.99 0-.881.144-1.545.431-1.991.291-.446.72-.669 1.286-.669.563 0 .995.231 1.298.693.303.461.454 1.117.454 1.967Zm2.456 3.41c0 .664.072 1.161.215 1.49.144.326.379.489.705.489.326 0 .566-.161.721-.483.156-.326.233-.824.233-1.496 0-.663-.077-1.154-.233-1.472-.155-.322-.395-.483-.721-.483-.326 0-.561.161-.705.483-.143.318-.215.809-.215 1.472Zm2.672 0c0 .881-.15 1.549-.449 2.002-.294.451-.729.676-1.303.676-.551 0-.976-.231-1.275-.693-.295-.462-.442-1.123-.442-1.985 0-.88.143-1.544.43-1.99.291-.446.72-.669 1.287-.669.551 0 .979.228 1.286.686.31.454.466 1.112.466 1.973Zm-1.502-5.948-4.72 8.509h-.856l4.72-8.509h.856Z" fill="#fff"/><rect x="82.922" y="184.696" width="11.777" height="54.174" rx="5.888" transform="rotate(90 82.922 184.696)" fill="#95ABBC"/><rect x="351.115" y="184.922" width="11.324" height="253.889" rx="5.662" transform="rotate(90 351.115 184.922)" fill="#65E4A3"/><path d="m367.078 194.75 3.527-7.618h-4.639v-.891h5.663v.774l-3.48 7.735h-1.071Zm8.404-5.197c.896 0 1.601.223 2.113.669.516.442.774 1.05.774 1.822 0 .881-.282 1.571-.844 2.072-.559.5-1.331.751-2.317.751-.958 0-1.689-.154-2.194-.46v-.931c.272.174.609.312 1.013.413.403.097.801.145 1.193.145.683 0 1.213-.161 1.589-.483.38-.322.57-.787.57-1.397 0-1.187-.727-1.781-2.182-1.781-.369 0-.862.057-1.479.169l-.5-.32.32-3.981h4.231v.891h-3.404l-.216 2.555c.446-.09.891-.134 1.333-.134Zm4.988-.774c0 .659.072 1.154.215 1.484.144.33.377.495.699.495.636 0 .954-.66.954-1.979 0-1.312-.318-1.967-.954-1.967-.322 0-.555.163-.699.488-.143.326-.215.819-.215 1.479Zm2.666 0c0 .884-.15 1.554-.449 2.008-.295.45-.729.675-1.303.675-.544 0-.967-.231-1.269-.693-.299-.461-.448-1.125-.448-1.99 0-.881.143-1.545.43-1.991.291-.446.72-.669 1.287-.669.562 0 .995.231 1.298.693.302.461.454 1.117.454 1.967Zm2.456 3.41c0 .664.071 1.161.215 1.49.144.326.378.489.704.489.326 0 .567-.161.722-.483.155-.326.233-.824.233-1.496 0-.663-.078-1.154-.233-1.472-.155-.322-.396-.483-.722-.483-.326 0-.56.161-.704.483-.144.318-.215.809-.215 1.472Zm2.671 0c0 .881-.149 1.549-.448 2.003-.295.45-.73.675-1.304.675-.551 0-.976-.231-1.274-.693-.295-.462-.443-1.123-.443-1.985 0-.88.144-1.544.431-1.99.291-.446.72-.669 1.286-.669.551 0 .98.228 1.286.686.311.454.466 1.112.466 1.973Zm-1.502-5.948-4.72 8.509h-.855l4.72-8.509h.855Z" fill="#fff"/><circle cx="18.985" cy="18.843" r="4.711" fill="#FC5B00"/><circle cx="37.828" cy="18.843" r="4.711" fill="#ECAA00"/><circle cx="56.671" cy="18.843" r="4.711" fill="#009D10"/></g></g><defs><clipPath id="b"><rect x=".142" width="493.858" height="231.898" rx="15.03" fill="#fff"/></clipPath><filter id="a" x="-68.569" y="-68.711" width="631.279" height="369.32" filterUnits="userSpaceOnUse" color-interpolation-filters="sRGB"><feFlood flood-opacity="0" result="BackgroundImageFix"/><feGaussianBlur in="BackgroundImageFix" stdDeviation="34.355"/><feComposite in2="SourceAlpha" operator="in" result="effect1_backgroundBlur_0_577"/><feBlend in="SourceGraphic" in2="effect1_backgroundBlur_0_577" result="shape"/></filter></defs></svg>