<svg width="163" height="42" fill="none" xmlns="http://www.w3.org/2000/svg"><path d="M40.202 38V6.86H52.55c2.105 0 3.828.425 5.169 1.276 1.355.836 2.357 1.91 3.005 3.222.664 1.312.995 2.667.995 4.066 0 1.715-.41 3.171-1.232 4.368-.808 1.196-1.91 2.004-3.31 2.422v-1.081c1.962.446 3.447 1.376 4.456 2.79 1.023 1.412 1.535 3.02 1.535 4.822 0 1.845-.353 3.46-1.06 4.844-.706 1.383-1.758 2.465-3.157 3.243-1.384.779-3.1 1.168-5.147 1.168H40.202Zm5.277-4.909h7.677c.908 0 1.723-.18 2.443-.54a4.193 4.193 0 0 0 1.687-1.558c.418-.677.627-1.477.627-2.4 0-.836-.18-1.586-.54-2.249a3.96 3.96 0 0 0-1.58-1.579c-.691-.403-1.52-.605-2.486-.605H45.48v8.931Zm0-13.797h7.006c.75 0 1.42-.144 2.011-.432a3.338 3.338 0 0 0 1.406-1.276c.346-.562.52-1.254.52-2.076 0-1.081-.347-1.982-1.039-2.703-.692-.721-1.658-1.081-2.898-1.081H45.48v7.568ZM77.802 38.65c-2.335 0-4.375-.526-6.12-1.579-1.744-1.052-3.1-2.501-4.065-4.346-.952-1.86-1.428-3.994-1.428-6.401 0-2.451.49-4.6 1.471-6.445.98-1.845 2.343-3.287 4.087-4.325 1.745-1.038 3.763-1.557 6.055-1.557 2.35 0 4.397.527 6.142 1.579 1.744 1.052 3.1 2.508 4.065 4.368.966 1.845 1.449 3.972 1.449 6.38 0 2.421-.49 4.562-1.47 6.422-.966 1.846-2.322 3.294-4.066 4.347-1.744 1.038-3.784 1.557-6.12 1.557Zm0-4.888c2.076 0 3.619-.692 4.628-2.076 1.009-1.383 1.514-3.171 1.514-5.362 0-2.264-.512-4.066-1.536-5.407-1.023-1.355-2.559-2.032-4.606-2.032-1.398 0-2.552.317-3.46.951-.894.62-1.557 1.492-1.99 2.617-.432 1.11-.648 2.4-.648 3.87 0 2.264.512 4.073 1.535 5.428 1.038 1.341 2.56 2.011 4.563 2.011ZM94.655 38V6.211h5.212V38h-5.212Zm21.053.649c-2.148 0-4.022-.54-5.622-1.622-1.601-1.081-2.841-2.552-3.72-4.412-.879-1.86-1.319-3.957-1.319-6.293 0-2.364.44-4.469 1.319-6.314.894-1.86 2.155-3.323 3.784-4.39 1.629-1.081 3.547-1.622 5.753-1.622 2.22 0 4.08.54 5.579 1.622 1.514 1.067 2.66 2.53 3.438 4.39.779 1.86 1.168 3.965 1.168 6.315 0 2.32-.389 4.418-1.168 6.292-.778 1.86-1.939 3.33-3.481 4.412-1.543 1.081-3.453 1.622-5.731 1.622Zm.8-4.671c1.399 0 2.523-.317 3.374-.952.865-.649 1.492-1.55 1.881-2.703.404-1.153.606-2.487.606-4 0-1.529-.202-2.862-.606-4.001-.389-1.153-1.002-2.047-1.838-2.682-.836-.648-1.918-.973-3.244-.973-1.398 0-2.552.346-3.46 1.038-.908.678-1.578 1.6-2.011 2.768-.432 1.154-.649 2.437-.649 3.85 0 1.427.209 2.724.627 3.892.433 1.153 1.089 2.069 1.968 2.746.88.678 1.997 1.017 3.352 1.017ZM122.369 38V21.608h-.649V6.86h5.255V38h-4.606Zm20.984.649c-2.336 0-4.376-.526-6.12-1.579-1.744-1.052-3.1-2.501-4.065-4.346-.952-1.86-1.428-3.994-1.428-6.401 0-2.451.49-4.6 1.471-6.445.98-1.845 2.342-3.287 4.087-4.325 1.744-1.038 3.763-1.557 6.055-1.557 2.35 0 4.397.527 6.141 1.579 1.745 1.052 3.1 2.508 4.066 4.368.966 1.845 1.449 3.972 1.449 6.38 0 2.421-.49 4.562-1.471 6.422-.966 1.846-2.321 3.294-4.065 4.347-1.745 1.038-3.785 1.557-6.12 1.557Zm0-4.888c2.076 0 3.618-.692 4.628-2.076 1.009-1.383 1.513-3.171 1.513-5.362 0-2.264-.511-4.066-1.535-5.407-1.024-1.355-2.559-2.032-4.606-2.032-1.399 0-2.552.317-3.46.951-.894.62-1.557 1.492-1.99 2.617-.432 1.11-.648 2.4-.648 3.87 0 2.264.511 4.073 1.535 5.428 1.038 1.341 2.559 2.011 4.563 2.011Z" fill="#fff"/><path d="M0 21h17.068a8.842 8.842 0 0 1 0 17.684H0V21ZM0 5.526h11.393a6.632 6.632 0 1 1 0 13.264H0V5.526Z" fill="#65E4A3"/></svg>