<svg width="174" height="175" fill="none" xmlns="http://www.w3.org/2000/svg"><g clip-path="url(#a)"><path d="M161.328 87.53c0 41.114-33.249 74.397-74.204 74.397-40.956 0-74.205-33.283-74.205-74.397 0-41.115 33.249-74.398 74.205-74.398 40.955 0 74.204 33.283 74.204 74.397Z" stroke="#0A2640" stroke-width="24.971"/><mask id="b" style="mask-type:alpha" maskUnits="userSpaceOnUse" x="-52" y="-31" width="137" height="226"><path d="M84.357 79.519 50.542-30.78-51.826 99.237 2.586 194.13 84.357 79.519Z" fill="#C4C4C4"/></mask><g mask="url(#b)"><path d="M161.328 87.53c0 41.114-33.248 74.397-74.204 74.397-40.956 0-74.204-33.283-74.204-74.398 0-41.115 33.248-74.397 74.204-74.397 40.956 0 74.204 33.282 74.204 74.397Z" stroke="#0DBBFC" stroke-width="24.971"/></g><mask id="c" style="mask-type:alpha" maskUnits="userSpaceOnUse" x="39" y="-40" width="169" height="157"><path d="m95.804 89.184 111.864 27.391-59.115-154.678L39.362-39.88 95.804 89.184Z" fill="#C4C4C4"/></mask><g mask="url(#c)"><path d="M49.087 151.371C13.864 130.33 2.303 84.674 23.271 49.396 44.241 14.117 89.795 2.579 125.02 23.62c35.225 21.041 46.785 66.697 25.817 101.975-20.969 35.279-66.524 46.817-101.749 25.775Z" stroke="#69E6A6" stroke-width="24.971"/></g></g><defs><clipPath id="a"><path fill="#fff" transform="translate(.268 .79)" d="M0 0h173.469v173.469H0z"/></clipPath></defs></svg>